<?xml version="1.0" encoding="iso-8859-1"?>
<!-- Generator: Adobe Illustrator 28.1.0, SVG Export Plug-In . SVG Version: 6.00 Build 0)  -->
<svg version="1.1" id="Layer_1" xmlns="http://www.w3.org/2000/svg" xmlns:xlink="http://www.w3.org/1999/xlink" x="0px" y="0px"
	 width="1366px" height="768px" viewBox="0 0 1366 768" enable-background="new 0 0 1366 768" xml:space="preserve">
<g>
	<g>
		<path d="M525.09,239.176v-96.387h-84.375v96.387h-44.678V23.258h44.678v82.324h84.375V23.258h44.824v215.918H525.09z"/>
		<path d="M763.273,144.84H658.391v55.518h119.531v38.818H614.299V23.258h158.35V61.49H658.391v45.85h104.883V144.84z"/>
		<path d="M969.963,23.258V61.49h-64.6v177.686h-45.41V61.49h-64.893V23.258H969.963z"/>
	</g>
	<g>
		<path d="M279.582,273.258h45.117v177.1h106.934v38.818H279.582V273.258z"/>
		<path d="M589.25,444.791h-79.541l-14.941,44.385H447.6l77.051-215.918h50.977l76.465,215.918h-48.926L589.25,444.791z
			 M576.652,407.584l-26.953-84.961l-27.832,84.961H576.652z"/>
		<path d="M854.094,489.176h-45.117l-88.184-153.369v153.369h-42.041V273.258h47.314l85.986,150.732V273.258h42.041V489.176z"/>
		<path d="M1028.557,483.902c-11.916,7.324-26.564,10.986-43.945,10.986c-28.615,0-52.053-9.91-70.312-29.736
			c-19.043-19.922-28.564-47.168-28.564-81.738c0-34.959,9.617-62.988,28.857-84.082c19.237-21.094,44.678-31.641,76.318-31.641
			c27.44,0,49.486,6.958,66.138,20.874c16.648,13.916,26.195,31.274,28.638,52.075h-44.385c-3.42-14.745-11.77-25.049-25.049-30.908
			c-7.423-3.223-15.674-4.834-24.756-4.834c-17.384,0-31.666,6.569-42.847,19.702c-11.184,13.136-16.772,32.886-16.772,59.253
			c0,26.564,6.054,45.362,18.164,56.396c12.107,11.037,25.877,16.553,41.309,16.553c15.136,0,27.539-4.369,37.207-13.11
			c9.668-8.738,15.623-20.189,17.871-34.351h-49.951v-36.035h89.941v115.869h-29.883l-4.541-26.953
			C1043.301,472.477,1035.489,479.705,1028.557,483.902z"/>
	</g>
	<g>
		<path d="M470.231,739.176v-96.387h-84.375v96.387h-44.678V523.258h44.678v82.324h84.375v-82.324h44.824v215.918H470.231z"/>
		<path d="M685.856,655.973V523.258h45.85v132.715c0,22.95-3.565,40.821-10.693,53.613c-13.282,23.438-38.624,35.156-76.025,35.156
			c-37.403,0-62.794-11.719-76.172-35.156c-7.13-12.792-10.693-30.663-10.693-53.613V523.258h45.85v132.715
			c0,14.846,1.758,25.686,5.273,32.52c5.468,12.11,17.382,18.164,35.742,18.164c18.261,0,30.126-6.054,35.596-18.164
			C684.098,681.658,685.856,670.818,685.856,655.973z"/>
		<path d="M771.256,523.258h44.824v215.918h-44.824V523.258z"/>
		<path d="M936.492,707.975c10.643,0,19.285-1.172,25.928-3.516c12.598-4.49,18.896-12.84,18.896-25.049
			c0-7.127-3.127-12.646-9.375-16.553c-6.252-3.809-16.066-7.178-29.443-10.107l-22.852-5.127
			c-22.463-5.076-37.99-10.595-46.582-16.553c-14.553-9.961-21.826-25.536-21.826-46.729c0-19.336,7.031-35.398,21.094-48.193
			c14.062-12.792,34.717-19.189,61.963-19.189c22.752,0,42.162,6.031,58.227,18.091c16.062,12.062,24.486,29.567,25.27,52.515
			h-43.359c-0.783-12.986-6.445-22.215-16.992-27.686c-7.031-3.611-15.773-5.42-26.221-5.42c-11.623,0-20.9,2.344-27.832,7.031
			c-6.936,4.688-10.4,11.231-10.4,19.629c0,7.716,3.416,13.477,10.254,17.285c4.395,2.541,13.77,5.519,28.125,8.936l37.207,8.936
			c16.307,3.907,28.611,9.133,36.914,15.674c12.891,10.158,19.336,24.854,19.336,44.092c0,19.728-7.545,36.108-22.633,49.146
			s-36.4,19.556-63.939,19.556c-28.125,0-50.244-6.42-66.357-19.263c-16.113-12.84-24.17-30.491-24.17-52.954h43.066
			c1.365,9.865,4.051,17.237,8.057,22.119C906.169,703.532,918.716,707.975,936.492,707.975z"/>
	</g>
</g>
<g>
	<path d="M-817.389,219.836v-96.387h-84.375v96.387h-44.678V3.918h44.678v82.324h84.375V3.918h44.824v215.918H-817.389z"/>
	<path d="M-579.205,125.5h-104.883v55.518h119.531v38.818H-728.18V3.918h158.35V42.15h-114.258V88h104.883V125.5z"/>
	<path d="M-372.516,3.918V42.15h-64.6v177.686h-45.41V42.15h-64.893V3.918H-372.516z"/>
	<path d="M-1071.1,253.918h45.117v177.1h106.934v38.818H-1071.1V253.918z"/>
	<path d="M-761.432,425.451h-79.541l-14.941,44.385h-47.168l77.051-215.918h50.977l76.465,215.918h-48.926L-761.432,425.451z
		 M-774.029,388.244l-26.953-84.961l-27.832,84.961H-774.029z"/>
	<path d="M-496.588,469.836h-45.117l-88.184-153.369v153.369h-42.041V253.918h47.314l85.986,150.732V253.918h42.041V469.836z"/>
	<path d="M-322.125,464.562c-11.916,7.324-26.564,10.986-43.945,10.986c-28.615,0-52.053-9.91-70.312-29.736
		c-19.043-19.922-28.564-47.168-28.564-81.738c0-34.959,9.617-62.988,28.857-84.082c19.237-21.094,44.678-31.641,76.318-31.641
		c27.44,0,49.486,6.958,66.138,20.874c16.648,13.916,26.195,31.274,28.638,52.075h-44.385c-3.42-14.745-11.77-25.049-25.049-30.908
		c-7.423-3.223-15.674-4.834-24.756-4.834c-17.384,0-31.666,6.569-42.847,19.702c-11.184,13.136-16.772,32.886-16.772,59.253
		c0,26.564,6.054,45.362,18.164,56.396c12.107,11.037,25.877,16.553,41.309,16.553c15.136,0,27.539-4.369,37.207-13.11
		c9.668-8.738,15.623-20.189,17.871-34.351h-49.951v-36.035h89.941v115.869h-29.883l-4.541-26.953
		C-307.381,453.137-315.192,460.365-322.125,464.562z"/>
	<path d="M-875.763,719.836v-96.387h-84.375v96.387h-44.678V503.918h44.678v82.324h84.375v-82.324h44.824v215.918H-875.763z"/>
	<path d="M-660.138,636.633V503.918h45.85v132.715c0,22.95-3.565,40.821-10.693,53.613c-13.282,23.438-38.624,35.156-76.025,35.156
		c-37.403,0-62.794-11.719-76.172-35.156c-7.13-12.792-10.693-30.663-10.693-53.613V503.918h45.85v132.715
		c0,14.846,1.758,25.686,5.273,32.52c5.468,12.11,17.382,18.164,35.742,18.164c18.261,0,30.126-6.054,35.596-18.164
		C-661.896,662.318-660.138,651.479-660.138,636.633z"/>
	<path d="M-574.737,503.918h44.824v215.918h-44.824V503.918z"/>
	<path d="M-409.502,688.635c10.643,0,19.285-1.172,25.928-3.516c12.598-4.49,18.896-12.84,18.896-25.049
		c0-7.127-3.127-12.646-9.375-16.553c-6.252-3.809-16.066-7.178-29.443-10.107l-22.852-5.127
		c-22.463-5.076-37.99-10.595-46.582-16.553c-14.553-9.961-21.826-25.536-21.826-46.729c0-19.336,7.031-35.398,21.094-48.193
		c14.062-12.792,34.717-19.189,61.963-19.189c22.752,0,42.162,6.031,58.227,18.091c16.062,12.062,24.486,29.567,25.27,52.515
		h-43.359c-0.783-12.986-6.445-22.215-16.992-27.686c-7.031-3.611-15.773-5.42-26.221-5.42c-11.623,0-20.9,2.344-27.832,7.031
		c-6.936,4.688-10.4,11.231-10.4,19.629c0,7.716,3.416,13.477,10.254,17.285c4.395,2.541,13.77,5.519,28.125,8.936l37.207,8.936
		c16.307,3.907,28.611,9.133,36.914,15.674c12.891,10.158,19.336,24.854,19.336,44.092c0,19.728-7.545,36.108-22.633,49.146
		s-36.4,19.556-63.939,19.556c-28.125,0-50.244-6.42-66.357-19.263c-16.113-12.84-24.17-30.491-24.17-52.954h43.066
		c1.365,9.865,4.051,17.237,8.057,22.119C-439.824,684.192-427.277,688.635-409.502,688.635z"/>
</g>
<g>
</g>
<g>
</g>
<g>
</g>
<g>
</g>
<g>
</g>
<g>
</g>
<g>
</g>
<g>
</g>
<g>
</g>
<g>
</g>
<g>
</g>
<g>
</g>
<g>
</g>
<g>
</g>
<g>
</g>
</svg>
