<?xml version="1.0" encoding="UTF-8"?>
<svg id="a" xmlns="http://www.w3.org/2000/svg" width="481.9mm" height="19.4mm" version="1.1" viewBox="0 0 1366 55">
  <defs>
    <style>
      .cls-1 {
        fill: #ff006e;
        stroke-width: 0px;
      }
    </style>
  </defs>
  <polygon class="cls-1" points="548.5 34.6 553.4 11.8 560.7 2.3 561.7 11.1 563.3 10.9 562.2 .5 560 .5 551.8 11 546.4 36.3 819.6 36.3 819.6 34.6 548.5 34.6"/>
  <g>
    <path class="cls-1" d="M678.6,23.6l-1.3,6.2h-2.9l3-14h2.9l-1.1,5.3h5.5l1.1-5.3h2.9l-3,14h-2.9l1.3-6.2h-5.5Z"/>
    <path class="cls-1" d="M699.6,27.3l-.5,2.5h-10.6l3-14h10.2l-.5,2.5h-7.4l-.6,3h6.8l-.5,2.4h-6.8l-.8,3.6h7.7,0Z"/>
    <path class="cls-1" d="M702.6,18.4l.5-2.5h11.3l-.5,2.5h-4.2l-2.4,11.5h-2.9l2.4-11.5s-4.2,0-4.2,0Z"/>
    <path class="cls-1" d="M724.5,15.9l-2.4,11.5h6.9l-.5,2.5h-9.8l3-14h2.9Z"/>
    <path class="cls-1" d="M740.8,15.9l2,14h-3.2l-.3-2.9h-5.1l-1.6,2.9h-3.1l8-14h3.3,0ZM738.4,19.1l-3,5.5h3.5l-.6-5.5Z"/>
    <path class="cls-1" d="M752.9,29.9l-3.6-9.9-2.1,9.9h-2.7l3-14h3.1l3.5,9.8,2.1-9.8h2.7l-3,14h-2.9Z"/>
    <path class="cls-1" d="M766.1,24.7l.5-2.3h5.8l-1.6,7.5h-1.9v-1.7c-.6.7-1.2,1.1-1.7,1.4-.9.5-1.9.7-3,.7-1.9,0-3.2-.6-4.1-1.9-1-1.3-1.2-3.1-.7-5.3.5-2.3,1.5-4.1,3-5.4,1.5-1.4,3.3-2,5.4-2s3.1.4,4,1.4c.9.9,1.3,2,1.1,3.4h-2.9c0-1-.4-1.6-1.2-2-.4-.2-.9-.3-1.5-.3-1.1,0-2.1.4-3,1.3s-1.5,2.1-1.9,3.8c-.4,1.7-.2,2.9.4,3.7s1.4,1.1,2.4,1.1,1.8-.3,2.6-.8c.7-.6,1.3-1.3,1.6-2.2h-3.2,0Z"/>
    <path class="cls-1" d="M777.8,23.6l-1.3,6.2h-2.9l3-14h2.9l-1.1,5.3h5.5l1.1-5.3h2.9l-3,14h-2.9l1.3-6.2h-5.5Z"/>
    <path class="cls-1" d="M801.9,15.9l-1.8,8.6c-.3,1.5-.8,2.6-1.4,3.5-1.2,1.5-3,2.3-5.4,2.3s-3.9-.8-4.4-2.3c-.3-.8-.3-2,0-3.5l1.8-8.6h3l-1.8,8.6c-.2,1-.2,1.7-.1,2.1.2.8.9,1.2,2.1,1.2s2-.4,2.6-1.2c.3-.4.6-1.1.8-2.1l1.8-8.6s3,0,3,0Z"/>
    <path class="cls-1" d="M801.5,29.9l3-14h2.9l-3,14h-2.9,0Z"/>
    <path class="cls-1" d="M813.6,21.3l2.3.6c1,.3,1.7.6,2.2,1,.7.7.9,1.6.6,2.9-.3,1.3-1,2.3-2.1,3.2s-2.6,1.3-4.4,1.3-3.2-.4-4-1.2-1.1-2-.8-3.4h2.8c0,.6,0,1.1.2,1.4.4.6,1.1.9,2.3.9s1.3,0,1.7-.2c.9-.3,1.4-.8,1.6-1.6.1-.5,0-.8-.4-1.1-.3-.2-.9-.5-1.8-.7l-1.4-.3c-1.4-.3-2.3-.7-2.8-1.1-.8-.6-1.1-1.7-.8-3,.3-1.3.9-2.3,2-3.1,1.1-.8,2.5-1.2,4.3-1.2s2.6.4,3.5,1.2,1.2,1.9.9,3.4h-2.8c.1-.8-.1-1.4-.7-1.8-.4-.2-.9-.4-1.6-.4s-1.4.2-1.9.5c-.5.3-.8.7-.9,1.3-.1.5,0,.9.4,1.1.2.2.8.4,1.7.6h0Z"/>
  </g>
  <g>
    <path class="cls-1" d="M550.8,41.4c.1-.2.2-.4.2-.5h2.2l-2.9,13.8h-2.8l2-9.5h-3.2l.4-1.8c.9,0,1.5,0,1.8-.2.6-.1,1.1-.4,1.5-.7.3-.2.5-.6.7-1h0Z"/>
    <path class="cls-1" d="M561.6,51.3c.3-.5.6-1.3.9-2.4-.3.3-.6.5-.9.7-.6.3-1.2.5-2,.5-1.1,0-2-.4-2.7-1.1-.7-.8-.9-1.8-.6-3.3.3-1.5,1-2.7,2-3.6,1-.9,2.2-1.4,3.6-1.4,2.1,0,3.3.9,3.7,2.8.2,1,.1,2.4-.2,4.1-.4,1.7-.9,3-1.5,4.2-1.3,2.1-3,3.2-5.1,3.2s-1.9-.3-2.6-.9c-.7-.6-1-1.5-.8-2.7h2.7c0,.4,0,.7.3,1,.2.3.6.4,1,.4.9,0,1.6-.5,2.2-1.5h0ZM559.1,45.4c-.2.8-.1,1.4.1,1.8.2.4.7.6,1.4.6s.7-.1,1.1-.3c.7-.4,1.1-1.1,1.4-2,.2-.8.1-1.4-.2-1.8s-.7-.7-1.3-.7-.9.1-1.3.4c-.6.4-1,1.1-1.2,2.1h0Z"/>
    <path class="cls-1" d="M570.5,44.4c-.3.5-.6,1.3-.9,2.4.4-.4.9-.7,1.4-.9.5-.2,1-.3,1.6-.3,1.2,0,2.1.4,2.7,1.2s.8,1.9.5,3.2c-.3,1.3-.9,2.4-1.9,3.4-1,1-2.3,1.5-3.9,1.5s-2.9-.7-3.4-2.2c-.4-1.1-.4-2.6,0-4.4.2-1,.5-1.9.7-2.6.4-1.2.9-2.1,1.5-2.9.5-.7,1.2-1.2,1.9-1.6.7-.4,1.5-.6,2.4-.6,1.3,0,2.2.3,2.8,1s.9,1.5.7,2.6h-2.7c0-.2,0-.5-.1-.7-.2-.4-.6-.6-1.2-.6-.9,0-1.6.5-2.2,1.5h0ZM570.1,48.2c-.6.4-1,1.1-1.2,2-.2.7,0,1.3.2,1.8.3.5.8.7,1.4.7s1.1-.2,1.6-.7.7-1,.9-1.8c.2-.8.1-1.4-.2-1.8s-.7-.6-1.3-.6-.9.1-1.3.4h0Z"/>
    <path class="cls-1" d="M583.2,51.3c.3-.5.6-1.3.9-2.4-.3.3-.6.5-.9.7-.6.3-1.2.5-2,.5-1.1,0-2-.4-2.7-1.1-.7-.8-.9-1.8-.6-3.3.3-1.5,1-2.7,2-3.6,1-.9,2.2-1.4,3.6-1.4,2.1,0,3.3.9,3.7,2.8.2,1,.1,2.4-.2,4.1-.4,1.7-.9,3-1.5,4.2-1.3,2.1-3,3.2-5.1,3.2s-1.9-.3-2.6-.9c-.7-.6-1-1.5-.8-2.7h2.7c0,.4,0,.7.3,1,.2.3.6.4,1,.4.9,0,1.6-.5,2.2-1.5h0ZM580.7,45.4c-.2.8-.1,1.4.1,1.8.2.4.7.6,1.4.6s.7-.1,1.1-.3c.7-.4,1.1-1.1,1.4-2,.2-.8.1-1.4-.2-1.8s-.7-.7-1.3-.7-.9.1-1.3.4c-.6.4-1,1.1-1.2,2.1h0Z"/>
  </g>
  <g>
    <path class="cls-1" d="M781.1,43.9c-.2.4-.5.9-.7,1.7h-2.6c.3-1.2.7-2.1,1.2-2.8,1-1.4,2.4-2.1,4.3-2.1s2.5.4,3.2,1.2c.7.8.9,1.9.6,3.2-.2,1-.7,1.9-1.5,2.7-.5.5-1.3,1.1-2.3,1.8l-1.2.8c-.8.5-1.3.8-1.6,1-.3.2-.6.5-.8.8h6l-.5,2.4h-9.4c.2-1,.6-1.9,1.2-2.7.6-.9,1.7-1.9,3.3-2.9,1.4-.9,2.4-1.5,2.8-1.9.7-.6,1.1-1.3,1.3-2,.1-.6,0-1.1-.2-1.5s-.7-.6-1.3-.6-1.4.3-1.9.9h0Z"/>
    <path class="cls-1" d="M797.6,42.5c.4,1.2.4,3,0,5.3-.5,2.3-1.2,4-2.2,5.2-1,1.2-2.3,1.8-4.1,1.8s-2.8-.6-3.3-1.8c-.4-1.2-.4-3,0-5.2.5-2.3,1.2-4,2.2-5.3,1-1.2,2.3-1.8,4.1-1.8s2.8.6,3.3,1.8h0ZM794.7,47.8c.3-1.7.5-2.9.4-3.7,0-.8-.5-1.2-1.3-1.2s-1.4.4-1.8,1.2c-.4.8-.8,2-1.2,3.7-.3,1.6-.5,2.8-.4,3.6s.5,1.3,1.3,1.3,1.4-.4,1.8-1.3.8-2,1.2-3.6Z"/>
    <path class="cls-1" d="M802.7,43.9c-.2.4-.5.9-.7,1.7h-2.6c.3-1.2.7-2.1,1.2-2.8,1-1.4,2.4-2.1,4.3-2.1s2.5.4,3.2,1.2c.7.8.9,1.9.6,3.2-.2,1-.7,1.9-1.5,2.7-.5.5-1.3,1.1-2.3,1.8l-1.2.8c-.8.5-1.3.8-1.6,1-.3.2-.6.5-.8.8h6l-.5,2.4h-9.4c.2-1,.6-1.9,1.2-2.7.6-.9,1.7-1.9,3.3-2.9,1.4-.9,2.4-1.5,2.8-1.9.7-.6,1.1-1.3,1.3-2,.1-.6,0-1.1-.2-1.5s-.7-.6-1.3-.6-1.4.3-1.9.9h0Z"/>
    <path class="cls-1" d="M816.8,51.6l-.6,3h-2.6l.6-3h-5.4l.5-2.4,6.8-8.3h3l-1.8,8.6h1.6l-.4,2.1h-1.6,0ZM811.2,49.5h3.4l1.3-5.9-4.7,5.9Z"/>
  </g>
</svg>