<?xml version="1.0" encoding="UTF-8"?>
<svg id="a" xmlns="http://www.w3.org/2000/svg" width="481.9mm" height="12.8mm" version="1.1" viewBox="0 0 1366 36.3">
  <defs>
    <style>
      .cls-1 {
        fill: #ff006e;
        stroke-width: 0px;
      }
    </style>
  </defs>
  <polygon class="cls-1" points="2.4 34.6 7.3 11.8 14.6 2.3 15.6 11.1 17.2 10.9 16.1 .5 13.9 .5 5.7 11 .3 36.3 273.5 36.3 273.5 34.6 2.4 34.6"/>
  <g>
    <path class="cls-1" d="M134.3,16l-1.1,5.3h5.6l1.1-5.3h3.1l-2.9,13.9h-3.1l1.3-6h-5.6l-1.3,6h-3l2.9-13.9h3.1,0Z"/>
    <path class="cls-1" d="M156.1,16l-.5,2.6h-7.5l-.6,3h7l-.5,2.4h-7l-.7,3.4h7.7l-.5,2.6h-10.7l2.9-13.9h10.6-.2Z"/>
    <path class="cls-1" d="M156.7,18.6l.5-2.6h11.6l-.5,2.6h-4.2l-2.4,11.3h-3.1l2.4-11.3h-4.4,0Z"/>
    <path class="cls-1" d="M178.8,16l-2.4,11.3h6.7l-.5,2.6h-9.7l2.9-13.9h3.1,0Z"/>
    <path class="cls-1" d="M193.9,16l2.3,13.9h-3l-.4-3.1h-5.2l-1.7,3.1h-3.2l8.2-13.9h3.1,0ZM192.5,24.5l-.7-5.5h0l-3,5.5h3.7Z"/>
    <path class="cls-1" d="M203.4,16l3.8,9.9h0l2-9.9h2.8l-2.9,13.9h-3l-3.8-9.7h0l-2,9.7h-2.8l2.9-13.9h3.1,0Z"/>
    <path class="cls-1" d="M222.2,28.4c-.5.6-1,1.1-1.6,1.3-.6.3-1.2.4-1.9.4-2,0-3.5-.5-4.6-1.6-1.1-1-1.6-2.6-1.6-4.5s.2-2.2.5-3.2.9-1.9,1.5-2.7c.7-.8,1.4-1.4,2.4-1.8.9-.5,2-.7,3.2-.7s1.6,0,2.3.3c.7.2,1.3.5,1.9.9.5.4,1,.9,1.3,1.5s.5,1.3.5,2.2h-3c0-.9-.3-1.5-.8-1.8-.5-.4-1.2-.5-2-.5s-1.5.2-2,.5c-.6.4-1,.8-1.4,1.4s-.6,1.2-.8,1.9c-.2.7-.3,1.4-.3,2s0,.9.2,1.4c0,.4.3.8.6,1.1s.6.6,1,.8c.4.2.9.3,1.4.3s1.1,0,1.5-.2.8-.4,1.1-.6c.3-.3.6-.6.8-.9.2-.4.4-.8.5-1.2h-3.2l.5-2.3h5.9l-1.6,7.5h-1.9v-1.4h-.4Z"/>
    <path class="cls-1" d="M232.4,16l-1.1,5.3h5.6l1.1-5.3h3.1l-2.9,13.9h-3.1l1.3-6h-5.6l-1.3,6h-3l2.9-13.9h3.1,0Z"/>
    <path class="cls-1" d="M253,26.7c-.3.8-.7,1.4-1.3,1.9-.5.5-1.2.9-1.9,1.2s-1.7.4-2.7.4-1.3,0-2-.2c-.7,0-1.2-.4-1.7-.7-.5-.3-.9-.7-1.2-1.3-.3-.5-.5-1.2-.5-1.9v-1c0-.3,0-.7.2-1l1.7-8h3l-1.7,8v1.8c0,.2,0,.4,0,.6,0,.2.2.4.4.6s.5.3.8.5c.3,0,.8.2,1.3.2s1.1,0,1.5-.2.7-.4.9-.7.4-.7.6-1.1c0-.4.3-.9.4-1.4l1.7-8.2h3l-1.7,8.1c-.2,1-.5,1.9-.8,2.6v-.2Z"/>
    <path class="cls-1" d="M261.2,16l-2.9,13.9h-3l2.9-13.9h3.1,0Z"/>
    <path class="cls-1" d="M264.2,26.5c0,.3.3.6.6.8.3.2.6.3,1,.4.4,0,.8,0,1.2,0s.6,0,.9,0,.6-.2.8-.3c.3-.2.5-.4.6-.6.2-.2.2-.5.2-.9s0-.6-.3-.8c-.2-.2-.5-.4-.8-.6s-.7-.3-1.1-.4c-.4,0-.8-.2-1.3-.4-.4,0-.9-.3-1.3-.5-.4-.2-.8-.4-1.1-.7s-.6-.6-.8-1-.3-.9-.3-1.5.2-1.4.5-2c.3-.5.7-1,1.3-1.3.5-.3,1.1-.6,1.8-.8s1.3-.2,2-.2,1.4,0,2,.2,1.2.4,1.7.8.8.8,1.1,1.4.4,1.2.4,2h-2.9c0-.4,0-.7-.2-1s-.3-.5-.5-.7-.5-.3-.8-.4-.6,0-1,0h-.9c-.3,0-.6.2-.8.3-.2,0-.4.3-.6.5,0,.2-.2.5-.2.8s0,.6.4.8.6.4.9.6c.4,0,.7.3,1.1.3s.7.2.9.2c.5,0,1,.3,1.5.5s.8.4,1.2.7.6.7.8,1.1.3,1,.3,1.6-.2,1.5-.5,2.1-.8,1.1-1.3,1.4c-.5.4-1.1.6-1.8.8-.7.2-1.3.2-2,.2-1.9,0-3.4-.4-4.3-1.2-1-.8-1.4-2-1.4-3.7h2.9c0,.5,0,.9.2,1.2v.4Z"/>
  </g>
</svg>