<?xml version="1.0" encoding="utf-8"?>
<!-- Generator: Adobe Illustrator 28.1.0, SVG Export Plug-In . SVG Version: 6.00 Build 0)  -->
<svg version="1.1" id="Layer_1" xmlns="http://www.w3.org/2000/svg" xmlns:xlink="http://www.w3.org/1999/xlink" x="0px" y="0px"
	 width="477px" height="219.5px" viewBox="0 0 477 219.5" style="enable-background:new 0 0 477 219.5;" xml:space="preserve">
<style type="text/css">
	.st0{fill:none;}
	.st1{enable-background:new    ;}
	.st2{fill:#FF006E;}
	.st3{fill:#FF006E;stroke:#FF006E;stroke-width:5;stroke-miterlimit:10;}
</style>
<rect x="38.2" y="-2.8" class="st0" width="224.1" height="200.8"/>
<g class="st1">
	<path class="st2" d="M95.1-0.3l-4.4,20.5h21.7l4.3-20.5h11.9l-11.3,53.5h-11.9l4.9-23.1H88.6l-4.9,23.1H72L83.2-0.3H95.1z"/>
	<path class="st2" d="M179.6-0.3l-2,9.9h-29.1l-2.4,11.5H173l-2,9.1h-26.9l-2.8,13.1h29.5l-2.1,9.9h-41.2l11.2-53.5H179.6z"/>
	<path class="st2" d="M181.8,9.6l2.1-9.9h44.7l-2.1,9.9h-16l-9.2,43.7h-11.8l9.1-43.7H181.8z"/>
	<path class="st2" d="M95,64.7l-9.1,43.6h25.9l-2.1,9.9H72l11.2-53.5H95z"/>
	<path class="st2" d="M153.2,64.7l8.9,53.5h-11.7l-1.7-11.9h-20l-6.8,11.9h-12.4l31.6-53.5H153.2z M147.6,97.6L145,76.3h-0.1
		l-11.5,21.3H147.6z"/>
	<path class="st2" d="M189.8,64.7l14.6,38.1h0.1l7.6-38.1h10.8l-11.3,53.5h-11.8l-14.7-37.6H185l-7.6,37.6h-11l11.2-53.5H189.8z"/>
	<path class="st2" d="M262.2,112.8c-1.8,2.4-3.8,4.1-6.1,5.1c-2.4,1-4.8,1.5-7.4,1.5c-7.6,0-13.5-2-17.6-6.1s-6.2-9.9-6.2-17.5
		c0-4.4,0.7-8.5,2-12.4c1.4-3.9,3.3-7.3,5.8-10.3c2.5-3,5.6-5.3,9.2-7.1c3.6-1.7,7.7-2.6,12.2-2.6c3.1,0,6.1,0.4,8.9,1.1
		c2.7,0.8,5.1,1.9,7.2,3.5c2,1.6,3.7,3.5,4.9,5.9c1.2,2.4,1.8,5.2,1.8,8.5h-11.8c-0.1-3.3-1.2-5.6-3.1-7c-1.9-1.4-4.5-2.1-7.8-2.1
		c-3,0-5.6,0.7-7.8,2.1c-2.2,1.4-4.1,3.1-5.5,5.3c-1.4,2.2-2.5,4.6-3.2,7.3c-0.7,2.7-1.1,5.3-1.1,7.8c0,1.9,0.2,3.6,0.7,5.2
		c0.5,1.6,1.2,3.1,2.2,4.4c1,1.3,2.2,2.3,3.8,3c1.5,0.8,3.4,1.1,5.5,1.1c2.2,0,4.2-0.3,5.8-0.9c1.6-0.6,3-1.4,4.2-2.4
		c1.2-1,2.1-2.2,2.9-3.6c0.8-1.4,1.4-3,1.9-4.7h-12.4l1.9-8.8H276l-6.1,29h-7.4v-5.5H262.2z"/>
	<path class="st2" d="M95.1,129.7l-4.4,20.5h21.7l4.3-20.5h11.9l-11.3,53.5h-11.9l4.9-23.1H88.6l-4.9,23.1H72l11.2-53.5H95.1z"/>
	<path class="st2" d="M174.4,171c-1.2,3-2.8,5.4-4.8,7.4c-2,2-4.5,3.5-7.4,4.5c-2.9,1-6.4,1.5-10.6,1.5c-2.6,0-5.2-0.3-7.7-0.8
		c-2.5-0.5-4.8-1.4-6.8-2.7c-2-1.2-3.6-2.9-4.8-4.9c-1.2-2-1.8-4.5-1.8-7.5c0-1.3,0.1-2.7,0.4-4c0.2-1.3,0.5-2.6,0.8-3.9l6.5-31H150
		l-6.5,31c-0.1,0.5-0.2,1-0.3,1.5c-0.1,0.6-0.3,1.2-0.4,1.8c-0.1,0.7-0.2,1.3-0.3,1.8c-0.1,0.6-0.1,1.1-0.1,1.5
		c0,0.7,0.1,1.4,0.4,2.2c0.3,0.9,0.8,1.6,1.5,2.4c0.8,0.7,1.8,1.3,3.1,1.8c1.3,0.5,3,0.8,5,0.8c2.4,0,4.4-0.3,5.9-0.9
		c1.5-0.6,2.7-1.5,3.6-2.6c0.9-1.1,1.6-2.5,2.2-4.2c0.5-1.7,1-3.5,1.5-5.5l6.7-31.7H184l-6.5,31.1
		C176.7,164.7,175.7,168.1,174.4,171z"/>
	<path class="st2" d="M206.2,129.7l-11.3,53.5h-11.8l11.2-53.5H206.2z"/>
	<path class="st2" d="M217.8,170.2c0.5,1.3,1.4,2.3,2.4,3s2.3,1.3,3.8,1.6c1.4,0.3,3,0.5,4.7,0.5c1.2,0,2.4-0.2,3.6-0.5
		c1.2-0.3,2.3-0.8,3.3-1.3c1-0.6,1.8-1.4,2.4-2.3c0.6-0.9,0.9-2.1,0.9-3.5c0-1.3-0.4-2.4-1.2-3.2c-0.8-0.8-1.8-1.5-3.1-2.1
		c-1.3-0.6-2.7-1.1-4.3-1.6c-1.6-0.5-3.3-0.9-4.9-1.4c-1.7-0.5-3.4-1.1-5-1.8c-1.6-0.7-3-1.6-4.3-2.7c-1.3-1.1-2.3-2.4-3.1-4
		c-0.8-1.6-1.2-3.5-1.2-5.8c0-3,0.6-5.5,1.9-7.7c1.2-2.1,2.9-3.8,4.9-5.1c2-1.3,4.3-2.3,6.8-2.9c2.5-0.6,5.1-0.9,7.7-0.9
		c2.7,0,5.3,0.3,7.8,0.9c2.4,0.6,4.5,1.6,6.4,3c1.8,1.4,3.3,3.2,4.4,5.4c1.1,2.2,1.6,4.8,1.6,7.9h-11.2c0-1.5-0.2-2.8-0.6-3.8
		c-0.5-1-1.2-1.9-2-2.5c-0.9-0.6-1.9-1.1-3.1-1.4c-1.2-0.3-2.5-0.4-3.8-0.4c-1.1,0-2.2,0.1-3.3,0.3c-1.1,0.2-2.1,0.6-3,1.1
		c-0.9,0.5-1.6,1.2-2.2,2.1c-0.6,0.9-0.8,1.9-0.8,3.2c0,1.3,0.5,2.4,1.5,3.3c1,0.9,2.1,1.6,3.5,2.2c1.4,0.6,2.8,1,4.2,1.3
		c1.4,0.3,2.6,0.6,3.5,0.8c2.1,0.6,4,1.2,5.8,1.9c1.8,0.7,3.3,1.7,4.5,2.8c1.3,1.2,2.3,2.5,3,4.2c0.7,1.7,1.1,3.7,1.1,6.1
		c0,3.2-0.7,5.9-2,8.2c-1.3,2.2-3,4.1-5.1,5.5c-2.1,1.4-4.4,2.4-7,3c-2.6,0.6-5.2,0.9-7.7,0.9c-7.5,0-13.1-1.5-16.8-4.6
		c-3.7-3-5.5-7.8-5.5-14.4h11.2C217,167.4,217.2,169,217.8,170.2z"/>
</g>
<polygon class="st3" points="10.1,211.3 20.3,154.5 42.3,126 45.2,152.4 50.3,151.8 46.8,120.5 40.1,120.5 15.5,152.3 3.8,216.4 
	474.1,216.4 474.1,211.3 "/>
</svg>
