<?xml version="1.0" encoding="UTF-8"?>
<svg id="a" xmlns="http://www.w3.org/2000/svg" width="481.894mm" height="53.494mm" viewBox="0 0 1365.999 151.637">
  <path d="M768.548,97.921l-5.583,26.426h-12.25l12.571-59.202h12.25l-4.82,22.572h23.135l4.82-22.572h12.292l-12.571,59.202h-12.288l5.583-26.426h-23.14Z" fill="#ff006e" stroke-width="0"/>
  <path d="M857.671,113.707l-2.249,10.644h-44.864l12.571-59.202h43.416l-2.249,10.483h-31.327l-2.652,12.572h28.76l-2.207,10.284h-28.76l-3.215,15.223h32.776v-.004Z" fill="#ff006e" stroke-width="0"/>
  <path d="M870.445,75.632l2.249-10.483h47.956l-2.249,10.483h-17.714l-10.322,48.719h-12.449l10.322-48.719s-17.794,0-17.794,0Z" fill="#ff006e" stroke-width="0"/>
  <path d="M963.105,65.149l-10.322,48.558h29.319l-2.249,10.644h-41.688l12.571-59.202h12.368Z" fill="#ff006e" stroke-width="0"/>
  <path d="M1031.905,65.149l8.395,59.202h-13.414l-1.245-12.169h-21.809l-6.667,12.169h-12.932l33.699-59.202h13.978-.004ZM1021.905,78.682l-12.571,23.296h15.02l-2.448-23.296Z" fill="#ff006e" stroke-width="0"/>
  <path d="M1083.318,124.351l-15.265-42.052-8.916,42.052h-11.529l12.571-59.202h12.974l14.778,41.328,8.797-41.328h11.529l-12.571,59.202h-12.368,0Z" fill="#ff006e" stroke-width="0"/>
  <path d="M1139.348,102.461l2.126-9.882h24.66l-6.747,31.768h-8.196l.322-7.391c-2.999,2.812-5.57,4.791-7.713,5.943-3.698,2.008-7.925,3.012-12.694,3.012-7.844,0-13.694-2.719-17.553-8.154-4.045-5.464-5.062-12.932-3.054-22.411,2.033-9.585,6.307-17.273,12.813-23.055,6.506-5.786,14.096-8.675,22.771-8.675,7.523,0,13.16,1.906,16.909,5.722,3.749,3.816,5.354,8.573,4.82,14.278h-12.169c-.081-4.045-1.766-6.87-5.062-8.476-1.847-.881-4.015-1.322-6.506-1.322-4.765,0-9.064,1.8-12.893,5.4-3.829,3.6-6.519,9.014-8.073,16.244-1.525,7.285-.957,12.44,1.707,15.464s6.112,4.536,10.343,4.536c4.147,0,7.811-1.199,10.983-3.596,3.172-2.393,5.468-5.536,6.887-9.42h-13.694l.013.013Z" fill="#ff006e" stroke-width="0"/>
  <path d="M1188.947,97.921l-5.583,26.426h-12.25l12.571-59.202h12.25l-4.82,22.572h23.135l4.82-22.572h12.292l-12.571,59.202h-12.288l5.583-26.426h-23.14Z" fill="#ff006e" stroke-width="0"/>
  <path d="M1290.769,65.149l-7.751,36.389c-1.339,6.294-3.359,11.195-6.066,14.702-5.007,6.426-12.639,9.64-22.894,9.64s-16.536-3.215-18.836-9.64c-1.207-3.507-1.139-8.408.199-14.702l7.751-36.389h12.571l-7.751,36.389c-.856,4.07-1.004,7.044-.441,8.916.801,3.321,3.719,4.981,8.755,4.981,5.007,0,8.611-1.66,10.805-4.981,1.368-1.872,2.478-4.846,3.333-8.916l7.751-36.389h12.572Z" fill="#ff006e" stroke-width="0"/>
  <path d="M1289.037,124.351l12.571-59.202h12.288l-12.571,59.202h-12.292.004Z" fill="#ff006e" stroke-width="0"/>
  <path d="M1340.61,88.2l9.679,2.452c4.231,1.072,7.298,2.503,9.196,4.299,2.944,2.783,3.854,6.815,2.732,12.089-1.152,5.409-4.176,9.899-9.077,13.474-4.901,3.575-11.127,5.362-18.679,5.362-7.709,0-13.402-1.762-17.07-5.282s-4.846-8.361-3.533-14.52h11.809c-.186,2.707.123,4.727.923,6.065,1.499,2.44,4.685,3.655,9.56,3.655,2.918,0,5.354-.322,7.311-.966,3.719-1.233,5.93-3.52,6.625-6.866.428-1.953-.106-3.469-1.605-4.541-1.474-1.046-3.965-1.965-7.472-2.77l-5.985-1.406c-5.862-1.394-9.797-2.906-11.809-4.536-3.401-2.732-4.486-7.002-3.253-12.813,1.127-5.299,3.99-9.708,8.594-13.215,4.604-3.507,10.644-5.261,18.112-5.261,6.239,0,11.208,1.652,14.901,4.96,3.694,3.308,4.981,8.107,3.854,14.397h-11.89c.563-3.558-.441-6.091-3.012-7.59-1.711-.991-4.003-1.487-6.866-1.487-3.185,0-5.871.644-8.052,1.931-2.181,1.283-3.516,3.079-3.994,5.384-.457,2.118.148,3.694,1.809,4.74,1.042.699,3.439,1.512,7.188,2.452l.005-.008Z" fill="#ff006e" stroke-width="0"/>
  <polygon points="8.895 144.437 29.65 47.863 60.57 7.624 64.806 44.898 71.583 44.051 66.924 0 57.605 0 22.873 44.475 0 151.637 1365.825 151.637 1365.825 144.437 8.895 144.437" fill="#ff006e" stroke-width="0"/>
</svg>