<?xml version="1.0" encoding="UTF-8"?>
<svg id="a" xmlns="http://www.w3.org/2000/svg" width="481.9mm" height="19.4mm" viewBox="0 0 1366.016 54.992">
  <polygon points="548.527 34.595 553.426 11.798 560.725 2.3 561.725 11.098 563.325 10.898 562.225 .5 560.026 .5 551.827 10.998 546.427 36.295 819.588 36.295 819.588 34.595 548.527 34.595" fill="#3a86ff" stroke-width="0"/>
  <g>
    <path d="M678.608,23.597l-1.3,6.199h-2.9l3-13.998h2.9l-1.1,5.299h5.499l1.1-5.299h2.9l-3,13.998h-2.9l1.3-6.199s-5.499,0-5.499,0Z" fill="#3a86ff" stroke-width="0"/>
    <path d="M699.605,27.296l-.5,2.5h-10.598l3-13.998h10.199l-.5,2.5h-7.399l-.6,3h6.799l-.5,2.4h-6.799l-.8,3.599h7.699,0Z" fill="#3a86ff" stroke-width="0"/>
    <path d="M702.605,18.397l.5-2.5h11.298l-.5,2.5h-4.199l-2.4,11.498h-2.9l2.4-11.498h-4.199,0Z" fill="#3a86ff" stroke-width="0"/>
    <path d="M724.502,15.898l-2.4,11.498h6.899l-.5,2.5h-9.799l3-13.998h2.9-.1Z" fill="#3a86ff" stroke-width="0"/>
    <path d="M740.8,15.898l2,13.998h-3.2l-.3-2.9h-5.099l-1.6,2.9h-3.1l7.999-13.998h3.3,0ZM738.4,19.097l-3,5.499h3.499l-.6-5.499h.1Z" fill="#3a86ff" stroke-width="0"/>
    <path d="M752.898,29.896l-3.599-9.899-2.1,9.899h-2.7l3-13.998h3.1l3.499,9.799,2.1-9.799h2.7l-3,13.998h-3Z" fill="#3a86ff" stroke-width="0"/>
    <path d="M766.096,24.696l.5-2.3h5.799l-1.6,7.499h-1.9v-1.7c-.6.7-1.2,1.1-1.7,1.4-.9.5-1.9.7-3,.7-1.9,0-3.2-.6-4.099-1.9-1-1.3-1.2-3.1-.7-5.299.5-2.3,1.5-4.099,3-5.399,1.5-1.4,3.3-2,5.399-2s3.1.4,3.999,1.4c.9.9,1.3,2,1.1,3.4h-2.9c0-1-.4-1.6-1.2-2-.4-.2-.9-.3-1.5-.3-1.1,0-2.1.4-3,1.3s-1.5,2.1-1.9,3.799c-.4,1.7-.2,2.9.4,3.699s1.4,1.1,2.4,1.1,1.8-.3,2.6-.8c.7-.6,1.3-1.3,1.6-2.2h-3.2l-.1-.4Z" fill="#3a86ff" stroke-width="0"/>
    <path d="M777.794,23.597l-1.3,6.199h-2.9l3-13.998h2.9l-1.1,5.299h5.499l1.1-5.299h2.9l-3,13.998h-2.9l1.3-6.199s-5.499,0-5.499,0Z" fill="#3a86ff" stroke-width="0"/>
    <path d="M801.891,15.898l-1.8,8.599c-.3,1.5-.8,2.6-1.4,3.499-1.2,1.5-3,2.3-5.399,2.3s-3.899-.8-4.399-2.3c-.3-.8-.3-2,0-3.499l1.8-8.599h3l-1.8,8.599c-.2,1-.2,1.7-.1,2.1.2.8.9,1.2,2.1,1.2s2-.4,2.6-1.2c.3-.4.6-1.1.8-2.1l1.8-8.599h3-.2Z" fill="#3a86ff" stroke-width="0"/>
    <path d="M801.491,29.896l3-13.998h2.9l-3,13.998h-2.9Z" fill="#3a86ff" stroke-width="0"/>
    <path d="M813.589,21.297l2.3.6c1,.3,1.7.6,2.2,1,.7.7.9,1.6.6,2.9-.3,1.3-1,2.3-2.1,3.2s-2.6,1.3-4.399,1.3-3.2-.4-3.999-1.2-1.1-2-.8-3.4h2.8c0,.6,0,1.1.2,1.4.4.6,1.1.9,2.3.9s1.3,0,1.7-.2c.9-.3,1.4-.8,1.6-1.6.1-.5,0-.8-.4-1.1-.3-.2-.9-.5-1.8-.7l-1.4-.3c-1.4-.3-2.3-.7-2.8-1.1-.8-.6-1.1-1.7-.8-3s.9-2.3,2-3.1c1.1-.8,2.5-1.2,4.299-1.2s2.6.4,3.499,1.2,1.2,1.9.9,3.4h-2.8c.1-.8-.1-1.4-.7-1.8-.4-.2-.9-.4-1.6-.4s-1.4.2-1.9.5-.8.7-.9,1.3c-.1.5,0,.9.4,1.1.2.2.8.4,1.7.6h0l-.1-.3Z" fill="#3a86ff" stroke-width="0"/>
  </g>
  <g>
    <path d="M550.827,41.394c.1-.2.2-.4.2-.5h2.2l-2.9,13.798h-2.8l2-9.499h-3.2l.4-1.8c.9,0,1.5,0,1.8-.2.6-.1,1.1-.4,1.5-.7.3-.2.5-.6.7-1h0l.1-.1Z" fill="#3a86ff" stroke-width="0"/>
    <path d="M561.625,51.293c.3-.5.6-1.3.9-2.4-.3.3-.6.5-.9.7-.6.3-1.2.5-2,.5-1.1,0-2-.4-2.7-1.1-.7-.8-.9-1.8-.6-3.3.3-1.5,1-2.7,2-3.599,1-.9,2.2-1.4,3.599-1.4,2.1,0,3.3.9,3.699,2.8.2,1,.1,2.4-.2,4.099-.4,1.7-.9,3-1.5,4.199-1.3,2.1-3,3.2-5.099,3.2s-1.9-.3-2.6-.9c-.7-.6-1-1.5-.8-2.7h2.7c0,.4,0,.7.3,1,.2.3.6.4,1,.4.9,0,1.6-.5,2.2-1.5h0ZM559.126,45.393c-.2.8-.1,1.4.1,1.8.2.4.7.6,1.4.6s.7-.1,1.1-.3c.7-.4,1.1-1.1,1.4-2,.2-.8.1-1.4-.2-1.8s-.7-.7-1.3-.7-.9.1-1.3.4c-.6.4-1,1.1-1.2,2.1h0v-.1Z" fill="#3a86ff" stroke-width="0"/>
    <path d="M570.524,44.394c-.3.5-.6,1.3-.9,2.4.4-.4.9-.7,1.4-.9s1-.3,1.6-.3c1.2,0,2.1.4,2.7,1.2s.8,1.9.5,3.2-.9,2.4-1.9,3.4-2.3,1.5-3.899,1.5-2.9-.7-3.4-2.2c-.4-1.1-.4-2.6,0-4.399.2-1,.5-1.9.7-2.6.4-1.2.9-2.1,1.5-2.9.5-.7,1.2-1.2,1.9-1.6.7-.4,1.5-.6,2.4-.6,1.3,0,2.2.3,2.8,1s.9,1.5.7,2.6h-2.7c0-.2,0-.5-.1-.7-.2-.4-.6-.6-1.2-.6-.9,0-1.6.5-2.2,1.5h.1ZM570.124,48.193c-.6.4-1,1.1-1.2,2-.2.7,0,1.3.2,1.8.3.5.8.7,1.4.7s1.1-.2,1.6-.7.7-1,.9-1.8.1-1.4-.2-1.8-.7-.6-1.3-.6-.9.1-1.3.4h-.1Z" fill="#3a86ff" stroke-width="0"/>
    <path d="M583.222,51.293c.3-.5.6-1.3.9-2.4-.3.3-.6.5-.9.7-.6.3-1.2.5-2,.5-1.1,0-2-.4-2.7-1.1-.7-.8-.9-1.8-.6-3.3.3-1.5,1-2.7,2-3.599,1-.9,2.2-1.4,3.599-1.4,2.1,0,3.3.9,3.699,2.8.2,1,.1,2.4-.2,4.099-.4,1.7-.9,3-1.5,4.199-1.3,2.1-3,3.2-5.099,3.2s-1.9-.3-2.6-.9c-.7-.6-1-1.5-.8-2.7h2.7c0,.4,0,.7.3,1,.2.3.6.4,1,.4.9,0,1.6-.5,2.2-1.5h0ZM580.723,45.393c-.2.8-.1,1.4.1,1.8.2.4.7.6,1.4.6s.7-.1,1.1-.3c.7-.4,1.1-1.1,1.4-2,.2-.8.1-1.4-.2-1.8s-.7-.7-1.3-.7-.9.1-1.3.4c-.6.4-1,1.1-1.2,2.1h0v-.1Z" fill="#3a86ff" stroke-width="0"/>
  </g>
  <g>
    <path d="M781.094,43.894c-.2.4-.5.9-.7,1.7h-2.6c.3-1.2.7-2.1,1.2-2.8,1-1.4,2.4-2.1,4.299-2.1s2.5.4,3.2,1.2.9,1.9.6,3.2c-.2,1-.7,1.9-1.5,2.7-.5.5-1.3,1.1-2.3,1.8l-1.2.8c-.8.5-1.3.8-1.6,1s-.6.5-.8.8h5.999l-.5,2.4h-9.399c.2-1,.6-1.9,1.2-2.7.6-.9,1.7-1.9,3.3-2.9,1.4-.9,2.4-1.5,2.8-1.9.7-.6,1.1-1.3,1.3-2,.1-.6,0-1.1-.2-1.5s-.7-.6-1.3-.6-1.4.3-1.9.9h.1Z" fill="#3a86ff" stroke-width="0"/>
    <path d="M797.591,42.494c.4,1.2.4,3,0,5.299-.5,2.3-1.2,3.999-2.2,5.199s-2.3,1.8-4.099,1.8-2.8-.6-3.3-1.8c-.4-1.2-.4-3,0-5.199.5-2.3,1.2-3.999,2.2-5.299,1-1.2,2.3-1.8,4.099-1.8s2.8.6,3.3,1.8h0ZM794.692,47.793c.3-1.7.5-2.9.4-3.699,0-.8-.5-1.2-1.3-1.2s-1.4.4-1.8,1.2c-.4.8-.8,2-1.2,3.699-.3,1.6-.5,2.8-.4,3.599s.5,1.3,1.3,1.3,1.4-.4,1.8-1.3.8-2,1.2-3.599Z" fill="#3a86ff" stroke-width="0"/>
    <path d="M802.691,43.894c-.2.4-.5.9-.7,1.7h-2.6c.3-1.2.7-2.1,1.2-2.8,1-1.4,2.4-2.1,4.299-2.1s2.5.4,3.2,1.2.9,1.9.6,3.2c-.2,1-.7,1.9-1.5,2.7-.5.5-1.3,1.1-2.3,1.8l-1.2.8c-.8.5-1.3.8-1.6,1s-.6.5-.8.8h5.999l-.5,2.4h-9.399c.2-1,.6-1.9,1.2-2.7.6-.9,1.7-1.9,3.3-2.9,1.4-.9,2.4-1.5,2.8-1.9.7-.6,1.1-1.3,1.3-2,.1-.6,0-1.1-.2-1.5s-.7-.6-1.3-.6-1.4.3-1.9.9h.1Z" fill="#3a86ff" stroke-width="0"/>
    <path d="M816.789,51.593l-.6,3h-2.6l.6-3h-5.399l.5-2.4,6.799-8.299h3l-1.8,8.599h1.6l-.4,2.1h-1.7ZM811.19,49.493h3.4l1.3-5.899-4.699,5.899Z" fill="#3a86ff" stroke-width="0"/>
  </g>
</svg>