<?xml version="1.0" encoding="utf-8"?>
<!-- Generator: Adobe Illustrator 28.1.0, SVG Export Plug-In . SVG Version: 6.00 Build 0)  -->
<svg version="1.1" id="Layer_1" xmlns="http://www.w3.org/2000/svg" xmlns:xlink="http://www.w3.org/1999/xlink" x="0px" y="0px"
	 width="1366px" height="36.8px" viewBox="0 0 1366 36.8" style="enable-background:new 0 0 1366 36.8;" xml:space="preserve">
<style type="text/css">
	.st0{fill:#FF006E;}
	.st1{display:none;}
	.st2{display:inline;fill:#FF006E;}
</style>
<polygon points="3.1,34.6 8,11.8 15.3,2.3 16.3,11.1 17.9,10.9 16.8,0.5 14.6,0.5 6.4,11 1,36.3 1366,36.3 1366,34.6 "/>
<g class="st1">
	<path class="st2" d="M22.9,15.9l-1.1,5.3h5.6l1.1-5.3h3.1l-2.9,13.9h-3.1l1.3-6h-5.6l-1.3,6h-3l2.9-13.9H22.9z"/>
	<path class="st2" d="M44.8,15.9l-0.5,2.6h-7.5l-0.6,3h7l-0.5,2.4h-7l-0.7,3.4h7.7L42,29.8H31.3l2.9-13.9H44.8z"/>
	<path class="st2" d="M45.4,18.5l0.5-2.6h11.6L57,18.5h-4.2l-2.4,11.3h-3.1l2.4-11.3H45.4z"/>
	<path class="st2" d="M67.5,15.9l-2.4,11.3h6.7l-0.5,2.6h-9.7l2.9-13.9H67.5z"/>
	<path class="st2" d="M82.6,15.9l2.3,13.9h-3l-0.4-3.1h-5.2l-1.7,3.1h-3.2l8.2-13.9H82.6z M81.2,24.4l-0.7-5.5h0l-3,5.5H81.2z"/>
	<path class="st2" d="M92.1,15.9l3.8,9.9h0l2-9.9h2.8l-2.9,13.9h-3l-3.8-9.7h0l-2,9.7H86l2.9-13.9H92.1z"/>
	<path class="st2" d="M110.8,28.4c-0.5,0.6-1,1.1-1.6,1.3c-0.6,0.3-1.2,0.4-1.9,0.4c-2,0-3.5-0.5-4.6-1.6c-1.1-1-1.6-2.6-1.6-4.5
		c0-1.1,0.2-2.2,0.5-3.2c0.3-1,0.9-1.9,1.5-2.7c0.7-0.8,1.4-1.4,2.4-1.8c0.9-0.5,2-0.7,3.2-0.7c0.8,0,1.6,0.1,2.3,0.3
		c0.7,0.2,1.3,0.5,1.9,0.9c0.5,0.4,1,0.9,1.3,1.5c0.3,0.6,0.5,1.3,0.5,2.2h-3c0-0.9-0.3-1.5-0.8-1.8c-0.5-0.4-1.2-0.5-2-0.5
		c-0.8,0-1.5,0.2-2,0.5c-0.6,0.4-1,0.8-1.4,1.4s-0.6,1.2-0.8,1.9c-0.2,0.7-0.3,1.4-0.3,2c0,0.5,0.1,0.9,0.2,1.4
		c0.1,0.4,0.3,0.8,0.6,1.1s0.6,0.6,1,0.8c0.4,0.2,0.9,0.3,1.4,0.3c0.6,0,1.1-0.1,1.5-0.2s0.8-0.4,1.1-0.6c0.3-0.3,0.6-0.6,0.8-0.9
		c0.2-0.4,0.4-0.8,0.5-1.2H108l0.5-2.3h5.9l-1.6,7.5h-1.9L110.8,28.4L110.8,28.4z"/>
	<path class="st2" d="M121.1,15.9l-1.1,5.3h5.6l1.1-5.3h3.1l-2.9,13.9h-3.1l1.3-6h-5.6l-1.3,6h-3l2.9-13.9H121.1z"/>
	<path class="st2" d="M141.7,26.6c-0.3,0.8-0.7,1.4-1.3,1.9c-0.5,0.5-1.2,0.9-1.9,1.2s-1.7,0.4-2.7,0.4c-0.7,0-1.3-0.1-2-0.2
		c-0.7-0.1-1.2-0.4-1.7-0.7c-0.5-0.3-0.9-0.7-1.2-1.3c-0.3-0.5-0.5-1.2-0.5-1.9c0-0.3,0-0.7,0.1-1c0.1-0.3,0.1-0.7,0.2-1l1.7-8h3
		l-1.7,8c0,0.1-0.1,0.2-0.1,0.4s-0.1,0.3-0.1,0.5c0,0.2-0.1,0.3-0.1,0.5s0,0.3,0,0.4c0,0.2,0,0.4,0.1,0.6c0.1,0.2,0.2,0.4,0.4,0.6
		c0.2,0.2,0.5,0.3,0.8,0.5c0.3,0.1,0.8,0.2,1.3,0.2c0.6,0,1.1-0.1,1.5-0.2c0.4-0.2,0.7-0.4,0.9-0.7s0.4-0.7,0.6-1.1
		c0.1-0.4,0.3-0.9,0.4-1.4l1.7-8.2h3l-1.7,8.1C142.3,25,142,25.9,141.7,26.6z"/>
	<path class="st2" d="M149.9,15.9L147,29.8h-3l2.9-13.9H149.9z"/>
	<path class="st2" d="M152.9,26.4c0.1,0.3,0.3,0.6,0.6,0.8c0.3,0.2,0.6,0.3,1,0.4c0.4,0.1,0.8,0.1,1.2,0.1c0.3,0,0.6,0,0.9-0.1
		s0.6-0.2,0.8-0.3c0.3-0.2,0.5-0.4,0.6-0.6c0.2-0.2,0.2-0.5,0.2-0.9c0-0.3-0.1-0.6-0.3-0.8c-0.2-0.2-0.5-0.4-0.8-0.6
		s-0.7-0.3-1.1-0.4c-0.4-0.1-0.8-0.2-1.3-0.4c-0.4-0.1-0.9-0.3-1.3-0.5c-0.4-0.2-0.8-0.4-1.1-0.7s-0.6-0.6-0.8-1
		c-0.2-0.4-0.3-0.9-0.3-1.5c0-0.8,0.2-1.4,0.5-2c0.3-0.5,0.7-1,1.3-1.3c0.5-0.3,1.1-0.6,1.8-0.8c0.7-0.2,1.3-0.2,2-0.2
		c0.7,0,1.4,0.1,2,0.2c0.6,0.2,1.2,0.4,1.7,0.8c0.5,0.4,0.8,0.8,1.1,1.4c0.3,0.6,0.4,1.2,0.4,2h-2.9c0-0.4,0-0.7-0.2-1
		s-0.3-0.5-0.5-0.7c-0.2-0.2-0.5-0.3-0.8-0.4s-0.6-0.1-1-0.1c-0.3,0-0.6,0-0.9,0.1c-0.3,0.1-0.6,0.2-0.8,0.3
		c-0.2,0.1-0.4,0.3-0.6,0.5c-0.1,0.2-0.2,0.5-0.2,0.8c0,0.3,0.1,0.6,0.4,0.8s0.6,0.4,0.9,0.6c0.4,0.1,0.7,0.3,1.1,0.3
		c0.4,0.1,0.7,0.2,0.9,0.2c0.5,0.1,1,0.3,1.5,0.5c0.5,0.2,0.8,0.4,1.2,0.7s0.6,0.7,0.8,1.1c0.2,0.4,0.3,1,0.3,1.6
		c0,0.8-0.2,1.5-0.5,2.1c-0.3,0.6-0.8,1.1-1.3,1.4c-0.5,0.4-1.1,0.6-1.8,0.8c-0.7,0.2-1.3,0.2-2,0.2c-1.9,0-3.4-0.4-4.3-1.2
		c-1-0.8-1.4-2-1.4-3.7h2.9C152.7,25.7,152.8,26.1,152.9,26.4z"/>
</g>
</svg>
