<?xml version="1.0" encoding="UTF-8"?>
<svg id="Layer_1" data-name="Layer 1" xmlns="http://www.w3.org/2000/svg" width="481.9mm" height="20.4mm" version="1.1" viewBox="0 0 1366 57.9">
  <defs>
    <style>
      .cls-1 {
        fill: #000;
        stroke-width: 0px;
      }
    </style>
  </defs>
  <polygon class="cls-1" points="535.3 55.2 543.2 18.3 555 2.9 556.6 17.2 559.2 16.8 557.4 0 553.9 0 540.6 17 531.9 57.9 834.1 57.9 834.1 55.2 535.3 55.2"/>
  <g>
    <path class="cls-1" d="M693.1,45.3l-1.3,6.2h-2.9l3-14h2.9l-1.1,5.3h5.5l1.1-5.3h2.9l-3,14h-2.9l1.3-6.2h-5.5Z"/>
    <path class="cls-1" d="M714.2,49.1l-.5,2.5h-10.6l3-14h10.2l-.5,2.5h-7.4l-.6,3h6.8l-.5,2.4h-6.8l-.8,3.6h7.7Z"/>
    <path class="cls-1" d="M717.2,40.1l.5-2.5h11.3l-.5,2.5h-4.2l-2.4,11.5h-2.9l2.4-11.5h-4.2Z"/>
    <path class="cls-1" d="M739.1,37.6l-2.4,11.5h6.9l-.5,2.5h-9.8l3-14h2.9Z"/>
    <path class="cls-1" d="M755.3,37.6l2,14h-3.2l-.3-2.9h-5.1l-1.6,2.9h-3.1l8-14h3.3ZM753,40.8l-3,5.5h3.5l-.6-5.5Z"/>
    <path class="cls-1" d="M767.4,51.6l-3.6-9.9-2.1,9.9h-2.7l3-14h3.1l3.5,9.8,2.1-9.8h2.7l-3,14h-2.9Z"/>
    <path class="cls-1" d="M780.7,46.4l.5-2.3h5.8l-1.6,7.5h-1.9v-1.7c-.6.7-1.2,1.1-1.7,1.4-.9.5-1.9.7-3,.7-1.9,0-3.2-.6-4.1-1.9-1-1.3-1.2-3.1-.7-5.3.5-2.3,1.5-4.1,3-5.4s3.3-2,5.4-2,3.1.5,4,1.4,1.3,2,1.1,3.4h-2.9c0-1-.4-1.6-1.2-2-.4-.2-.9-.3-1.5-.3-1.1,0-2.1.4-3,1.3s-1.5,2.1-1.9,3.8c-.4,1.7-.2,2.9.4,3.7s1.4,1.1,2.4,1.1,1.8-.3,2.6-.8,1.3-1.3,1.6-2.2h-3.2Z"/>
    <path class="cls-1" d="M792.4,45.3l-1.3,6.2h-2.9l3-14h2.9l-1.1,5.3h5.5l1.1-5.3h2.9l-3,14h-2.9l1.3-6.2h-5.5Z"/>
    <path class="cls-1" d="M816.4,37.6l-1.8,8.6c-.3,1.5-.8,2.6-1.4,3.5-1.2,1.5-3,2.3-5.4,2.3s-3.9-.8-4.4-2.3c-.3-.8-.3-2,0-3.5l1.8-8.6h3l-1.8,8.6c-.2,1-.2,1.7-.1,2.1.2.8.9,1.2,2.1,1.2s2-.4,2.6-1.2c.3-.4.6-1.1.8-2.1l1.8-8.6h3Z"/>
    <path class="cls-1" d="M816,51.6l3-14h2.9l-3,14h-2.9Z"/>
    <path class="cls-1" d="M828.2,43l2.3.6c1,.3,1.7.6,2.2,1,.7.7.9,1.6.6,2.9-.3,1.3-1,2.3-2.1,3.2s-2.6,1.3-4.4,1.3-3.2-.4-4-1.2-1.1-2-.8-3.4h2.8c0,.6,0,1.1.2,1.4.4.6,1.1.9,2.3.9s1.3,0,1.7-.2c.9-.3,1.4-.8,1.6-1.6.1-.5,0-.8-.4-1.1-.3-.2-.9-.5-1.8-.7l-1.4-.3c-1.4-.3-2.3-.7-2.8-1.1-.8-.6-1.1-1.7-.8-3,.3-1.3.9-2.3,2-3.1s2.5-1.2,4.3-1.2,2.6.4,3.5,1.2,1.2,1.9.9,3.4h-2.8c.1-.8-.1-1.4-.7-1.8-.4-.2-.9-.4-1.6-.4s-1.4.2-1.9.5-.8.7-.9,1.3c-.1.5,0,.9.4,1.1.2.2.8.4,1.7.6Z"/>
  </g>
</svg>