<?xml version="1.0" encoding="UTF-8"?>
<svg id="a" xmlns="http://www.w3.org/2000/svg" width="481.9mm" height="12.8mm" viewBox="0 0 1366.016 36.283">
  <polygon points="2.718 34.584 7.616 11.795 14.912 2.299 15.912 11.095 17.511 10.895 16.412 .5 14.213 .5 6.016 10.995 .619 36.283 273.694 36.283 273.694 34.584 2.718 34.584" fill="#fb5607" stroke-width="0"/>
  <g>
    <path d="M134.558,15.993l-1.1,5.298h5.597l1.1-5.298h3.099l-2.899,13.894h-3.099l1.299-5.997h-5.597l-1.299,5.997h-2.999l2.899-13.894h3.099-.1Z" fill="#fb5607" stroke-width="0"/>
    <path d="M156.348,15.993l-.5,2.599h-7.497l-.6,2.999h6.997l-.5,2.399h-6.997l-.7,3.398h7.696l-.5,2.599h-10.695l2.899-13.894h10.595-.2v-.1Z" fill="#fb5607" stroke-width="0"/>
    <path d="M156.948,18.592l.5-2.599h11.595l-.5,2.599h-4.198l-2.399,11.295h-3.099l2.399-11.295h-4.398.1Z" fill="#fb5607" stroke-width="0"/>
    <path d="M179.037,15.993l-2.399,11.295h6.697l-.5,2.599h-9.696l2.899-13.894h3.099-.1Z" fill="#fb5607" stroke-width="0"/>
    <path d="M194.131,15.993l2.299,13.894h-2.999l-.4-3.099h-5.198l-1.699,3.099h-3.199l8.196-13.894h3.099-.1ZM192.731,24.489l-.7-5.497h0l-2.999,5.497h3.698Z" fill="#fb5607" stroke-width="0"/>
    <path d="M203.626,15.993l3.798,9.895h0l1.999-9.895h2.799l-2.899,13.894h-2.999l-3.798-9.696h0l-1.999,9.696h-2.799l2.899-13.894h3.099-.1Z" fill="#fb5607" stroke-width="0"/>
    <path d="M222.418,28.387c-.5.6-1,1.099-1.599,1.299-.6.3-1.199.4-1.899.4-1.999,0-3.498-.5-4.598-1.599-1.1-1-1.599-2.599-1.599-4.498s.2-2.199.5-3.199.9-1.899,1.499-2.699c.7-.8,1.399-1.399,2.399-1.799.9-.5,1.999-.7,3.199-.7s1.599,0,2.299.3c.7.2,1.299.5,1.899.9.5.4,1,.9,1.299,1.499s.5,1.299.5,2.199h-2.999c0-.9-.3-1.499-.8-1.799-.5-.4-1.199-.5-1.999-.5s-1.499.2-1.999.5c-.6.4-1,.8-1.399,1.399s-.6,1.199-.8,1.899c-.2.7-.3,1.399-.3,1.999s0,.9.2,1.399c0,.4.3.8.6,1.099s.6.6,1,.8c.4.2.9.3,1.399.3s1.1,0,1.499-.2.8-.4,1.1-.6c.3-.3.6-.6.8-.9.2-.4.4-.8.5-1.199h-3.199l.5-2.299h5.897l-1.599,7.497h-1.899v-1.399h-.4v-.1Z" fill="#fb5607" stroke-width="0"/>
    <path d="M232.613,15.993l-1.1,5.298h5.597l1.1-5.298h3.099l-2.899,13.894h-3.099l1.299-5.997h-5.597l-1.299,5.997h-2.999l2.899-13.894h3.099-.1Z" fill="#fb5607" stroke-width="0"/>
    <path d="M253.204,26.688c-.3.8-.7,1.399-1.299,1.899-.5.5-1.199.9-1.899,1.199s-1.699.4-2.699.4-1.299,0-1.999-.2c-.7,0-1.199-.4-1.699-.7-.5-.3-.9-.7-1.199-1.299-.3-.5-.5-1.199-.5-1.899v-1c0-.3,0-.7.2-1l1.699-7.996h2.999l-1.699,7.996v2.399c0,.2.2.4.4.6s.5.3.8.5c.3,0,.8.2,1.299.2s1.1,0,1.499-.2.7-.4.9-.7.4-.7.6-1.099c0-.4.3-.9.4-1.399l1.699-8.196h2.999l-1.699,8.096c-.2,1-.5,1.899-.8,2.599v-.2Z" fill="#fb5607" stroke-width="0"/>
    <path d="M261.4,15.993l-2.899,13.894h-2.999l2.899-13.894h3.099-.1Z" fill="#fb5607" stroke-width="0"/>
    <path d="M264.399,26.488c0,.3.3.6.6.8.3.2.6.3,1,.4h2.099c.3,0,.6-.2.8-.3.3-.2.5-.4.6-.6.2-.2.2-.5.2-.9s0-.6-.3-.8c-.2-.2-.5-.4-.8-.6s-.7-.3-1.1-.4c-.4,0-.8-.2-1.299-.4-.4,0-.9-.3-1.299-.5s-.8-.4-1.1-.7-.6-.6-.8-1-.3-.9-.3-1.499.2-1.399.5-1.999c.3-.5.7-1,1.299-1.299.5-.3,1.1-.6,1.799-.8s1.299-.2,1.999-.2,1.399,0,1.999.2,1.199.4,1.699.8.8.8,1.1,1.399.4,1.199.4,1.999h-2.899c0-.4,0-.7-.2-1s-.3-.5-.5-.7-.5-.3-.8-.4-.6,0-1,0h-.9c-.3,0-.6.2-.8.3-.2,0-.4.3-.6.5,0,.2-.2.5-.2.8s0,.6.4.8.6.4.9.6c.4,0,.7.3,1.1.3s.7.2.9.2c.5,0,1,.3,1.499.5s.8.4,1.199.7.6.7.8,1.099.3,1,.3,1.599-.2,1.499-.5,2.099-.8,1.099-1.299,1.399c-.5.4-1.1.6-1.799.8-.7.2-1.299.2-1.999.2-1.899,0-3.398-.4-4.298-1.199-1-.8-1.399-1.999-1.399-3.698h2.899c0,.5,0,.9.2,1.199v.4l-.1-.1Z" fill="#fb5607" stroke-width="0"/>
  </g>
</svg>